<?xml version="1.0" encoding="UTF-8"?>
<svg viewBox="0 0 943.56232 636.68176" xmlns="http://www.w3.org/2000/svg">
 <g transform="translate(-26.384 -60.263)">
  <path d="m812.38 694.54c-6.8017-0.99567-28.482-5.627-48.179-10.292-32.954-7.8049-37.419-8.3931-55.959-7.3714-13.325 0.73424-20.916 0.34234-22.415-1.1572-1.2471-1.2471-2.3599-7.4151-2.4729-13.707s-0.92468-13.758-1.8038-16.592-1.127 3.2107-0.5511 13.433c1.3231 23.482-0.12966 25.334-16.331 20.822-6.0471-1.684-15.669-3.6478-21.381-4.364-13.604-1.7056-52.275 2.5128-67.936 7.411-16.384 5.1243-24.635 4.886-37.452-1.0813-11.954-5.5659-15.973-11.098-14.136-19.462 0.68517-3.1196 0.42404-7.8935-0.58034-10.609-1.7143-4.6342-2.0106-4.3741-4.8383 4.2471-4.631 14.119-11.095 16.549-42.959 16.147-18.215-0.22975-31.037 0.78692-43.762 3.4699l-17.998 3.7948-6.6346-4.9052c-5.1709-3.823-10.522-5.2465-24.256-6.4521-39.187-3.4402-88.363-1.0456-114.05 5.5536-6.5592 1.6849-12.741 2.5596-13.738 1.9438s-4.2904-7.6062-7.3198-15.534-5.8116-14.414-6.1827-14.414-2.3302 7.0228-4.3538 15.606c-2.5749 10.922-4.8973 16.258-7.7377 17.778-5.9183 3.1674-48.072 0.21242-70.277-4.9264-26.828-6.2087-32.101-5.9523-42.691 2.0769-15.395 11.672-23.832 14.717-40.857 14.744-11.99 0.0195-17.771-1.0655-25.764-4.8348-19.41-9.1535-25.153-21.454-22.931-49.116 0.7551-9.4012 2.2275-35.643 3.272-58.316s3.072-52.816 4.5056-66.987c3.8462-38.017 3.368-170.82-0.83488-231.88-4.522-65.694-6.3409-135.5-3.8668-148.4 1.6084-8.3869 3.7207-11.888 11.345-18.807 12.517-11.358 37.775-23.403 75.959-36.223 30.024-10.08 32.872-10.644 61.372-12.155 16.438-0.87121 35.773-2.2521 42.968-3.0686 9.9658-1.131 13.487-0.8276 14.786 1.2738 1.3536 2.1902 2.331 2.2386 4.7455 0.23472 2.3529-1.9527 9.7322-2.0439 32.62-0.40313 16.269 1.1663 36.999 2.1399 46.068 2.1636 22.401 0.05851 32.289 1.8872 33.411 6.1794 0.62025 2.3718 2.422 3.2035 5.6168 2.5928 2.587-0.49454 13.878 0.96947 25.091 3.2534s27.558 4.793 36.322 5.5758c15.666 1.3994 15.967 1.3367 17.892-3.7257 1.0767-2.832 4.6362-7.0563 7.91-9.3874 5.6396-4.0157 8.8692-4.2457 61.462-4.3772 30.53-0.07632 62.93-0.91394 71.998-1.8614 28.606-2.9885 41.67 4.6636 29.705 17.4-4.9866 5.308-4.0489 9.3258 1.1664 4.9975 2.1154-1.7556 9.3867-2.4944 22.207-2.2561 12.234 0.22736 27.68-1.2498 43.124-4.1239 18.893-3.5161 26.638-4.0908 36.054-2.6752 10.946 1.6457 12.299 2.4321 15.515 9.0169 1.9379 3.9677 3.568 5.7346 3.6224 3.9264s1.9188-4.9344 4.1429-6.9472c3.4023-3.079 6.1788-3.431 17.5-2.2186l13.457 1.4411-1.0674-5.8301c-1.8444-10.074 1.2562-12.043 18.525-11.76 15.338 0.25135 15.798 0.42213 47.986 17.81 43.903 23.718 87.664 49.778 96.26 57.326 11.976 10.515 11.22 22.731-2.3028 37.201l-5.0581 5.4124 6.8393 1.2862c9.4129 1.7702 30.873 12.231 34.814 16.97 6.6245 7.9667 8.6929 20.108 7.3933 43.399-1.9177 34.368-4.0943 43.878-14.39 62.869-10.595 19.544-21.606 49.871-30.326 83.526-9.5967 37.041-11.182 66.443-8.3384 154.64 1.3443 41.695 3.2577 85.548 4.2519 97.451 2.9421 35.222 0.04516 49.207-11.022 53.209-7.8865 2.8518-77.732 2.8755-97.15 0.03298zm-361.73-603.56c0-1.1336-0.9275-2.0611-2.0611-2.0611s-2.0611 0.92751-2.0611 2.0611 0.9275 2.0611 2.0611 2.0611 2.0611-0.92751 2.0611-2.0611z" fill="#e6e2d2"/>
  <path d="m814.45 694.43c-5.6681-1.0688-27.667-6.1456-48.887-11.282-34.99-8.4693-40.458-9.2692-58.74-8.5938l-20.158 0.74469-1.4774-14.783c-0.81257-8.1309-2.8948-17.87-4.627-21.642-3.0342-6.607-3.0975-6.2541-1.7283 9.6306 1.8271 21.196 1.6574 27.606-0.79595 30.059-1.2774 1.2774-6.7252 0.7723-15.233-1.4124-18.323-4.7052-64.742-3.0008-85.377 3.1349-16.834 5.0054-27.424 5.4146-36.658 1.4164-12.922-5.5951-14.785-8.1966-15.9-22.205-1.1734-14.749-3.6494-15.652-8.311-3.0323-4.7824 12.947-9.6073 14.417-48.378 14.739-20.001 0.166-35.261 1.2284-38.78 2.6998-8.6304 3.6086-16.677 2.9515-22.796-1.8615-11.967-9.4134-101.06-9.8368-136.99-0.65111-7.2111 1.8434-13.775 2.5434-14.652 1.5626-0.87401-0.97722-4.2192-9.1191-7.4337-18.093s-6.3207-15.003-6.9026-13.397-2.9521 10.339-5.2671 19.408l-4.209 16.489-26.969-0.35705c-19.087-0.2527-32.237-1.6082-44.992-4.6375-27.285-6.4803-33.81-5.915-46.376 4.0179-13.808 10.915-18.508 12.488-37.416 12.53-17.441 0.03832-26.073-2.6767-36.522-11.488-10.667-8.9941-13.395-17.705-11.961-38.197 0.67398-9.6358 2.1181-31.896 3.2092-49.467s3.5662-49.57 5.5003-71.109c5.2132-58.056 4.7451-167.02-1.0632-247.5-2.461-34.101-4.6828-79.549-4.9372-101-0.52027-43.852 0.1502-46.57 14.438-58.523 19.052-15.94 87.107-41.94 119.05-45.483 43.298-4.8015 72.037-6.4767 72.781-4.2426 0.96836 2.9051 6.5957 2.9746 6.5957 0.08152 0-1.4453 4.7139-1.7719 13.913-0.96396 7.652 0.67209 29.217 2.0848 47.921 3.1394s37.109 2.549 40.898 3.3208c6.436 1.3111 6.8012 1.8246 5.5514 7.8064-0.73582 3.5216-1.7099 10.113-2.1647 14.647l-0.82684 8.2445 2.0358-8.4585c1.1197-4.6522 4.095-10.354 6.6117-12.671l4.5758-4.212 22.672 4.8821c13.211 2.8447 29.769 4.9068 39.677 4.9413 15.61 0.05436 17.004-0.2765 17.004-4.0338 0-2.4923 3.2267-6.2284 8.2504-9.5529 8.2316-5.4474 8.314-5.4565 36.04-3.9872 16.302 0.86392 45.645 0.4483 70.986-1.0055 23.758-1.363 45.542-1.8897 48.407-1.1705s6.2474 3.246 7.5154 5.6152c1.9389 3.6229 1.4251 5.2264-3.2325 10.088-4.1716 4.3542-5.1731 6.9296-4.0593 10.439l1.4786 4.6586 3.7557-4.9791c3.5466-4.7018 4.7665-4.944 21.909-4.3495 12.236 0.42432 25.209-0.74992 39.796-3.6021 22.559-4.411 34.092-5.1551 45.265-2.9204 6.2947 1.2589 7.8643 3.1978 11.326 13.991 1.1011 3.4328 1.7602 3.0088 4.8052-3.0917l3.5291-7.0702 15.82 0.36796 15.82 0.36796-1.0885-6.7079c-1.749-10.778 3.4746-14.41 18.471-12.842 10.546 1.1022 18.067 4.5508 56.797 26.043 55.251 30.66 84.308 48.815 89.571 55.966 6.0267 8.1877 3.3807 18.19-7.9364 30.001-5.0421 5.2622-9.1674 9.8423-9.1674 10.178s2.7047 0.06935 6.0105-0.59181c13.903-2.7806 40.936 11.893 46.516 25.25 4.0054 9.5863 4.0135 35.52 0.01822 58.11-2.2508 12.726-5.655 22.132-13.244 36.594-10.991 20.944-28.638 72.029-34.132 98.801-1.8608 9.069-4.1437 28.083-5.0731 42.253-1.9125 29.158 0.68467 147.22 4.1866 190.31 3.1926 39.285 0.77611 53.518-9.9441 58.57-6.5251 3.0755-78.077 3.1252-94.304 0.06548zm18.273-15.524c-1.7977-5.9344-2.4424-12.931-1.6369-17.764 1.2469-7.4821 16.59-52.967 28.461-84.374 12.951-34.264 15.951-89.573 11.538-212.7-1.5034-41.944-2.8035-89.711-2.8893-106.15-0.14847-28.46 0.11454-30.464 5.5122-41.987 3.1175-6.6553 5.6681-12.409 5.6681-12.785s-4.5098-0.15026-10.022 0.50256c-5.7601 0.6822-13.285 0.10987-17.696-1.3459-8.3465-2.7546-21.749-13.422-21.749-17.311 0-1.3316-3.214-9.1276-7.1423-17.325-9.0516-18.888-39.736-51.681-53.197-56.853-5.335-2.0499-10.03-5.6749-12.118-9.357-1.8747-3.3059-5.2114-6.9755-7.4149-8.1548-3.6706-1.9644-4.2918-0.96147-7.4124 11.968-1.8733 7.7615-3.4061 15.922-3.4061 18.135 0 5.7079-6.0123 10.366-14.428 11.179l-7.214 0.69677 0.7027-9.1916c0.70606-9.2358-1.6196-19.856-7.1919-32.842l-3.0013-6.9945-16.983 1.3054c-9.3408 0.71799-21.454 2.8288-26.919 4.6907-7.4609 2.5422-14.468 3.1268-28.135 2.3476-19.52-1.113-20.498-0.64508-20.498 9.8018 0 2.6675-0.91875 7.2666-2.0417 10.22-1.775 4.6686-2.6053 5.0683-6.3579 3.06-7.291-3.902-10.748-15.552-9.6568-32.549 0.78429-12.221 0.37212-15.362-2.1419-16.327-1.7122-0.65703-17.264 0.4683-34.559 2.5007-30.37 3.5689-63.494 3.5205-89.034-0.13018-6.5087-0.93034-10.213-0.32183-14.286 2.3468l-5.4985 3.6028 8.8952 3.315c9.7974 3.6512 19.746 14.526 10.647 11.638-4.0027-1.2704-6.359 0.30201-15.028 10.029-5.6546 6.3444-11.621 11.535-13.259 11.535-3.3112 0-6.9981-8.0437-6.9981-15.268 0-4.5235-0.99138-4.7839-27.31-7.1736-15.02-1.3639-30.468-3.0276-34.327-3.6972l-7.0173-1.2174 1.3511 9.8576c0.86486 6.3098 0.49824 10.885-1.0186 12.713-1.7883 2.1547-1.7614 4.8856 0.10944 11.13 2.407 8.0339 2.1964 8.7535-7.2376 24.73-5.3442 9.0503-10.728 16.154-11.963 15.786-4.8016-1.4312-12.202-20.792-13.86-36.26-4.2265-39.434-5.155-45.713-7.0384-47.596-2.1899-2.1899-49.813-8.2999-64.927-8.33l-9.378-0.0187-2.5812 12.497c-3.0114 14.58-6.5976 15.594-14.059 3.9776-9.3437-14.546-10.253-15.373-16.375-14.873-39.065 3.1893-85.526 12.096-96.304 18.462-0.95421 0.56361 3.6833 3.2115 10.306 5.8843s14.24 7.3853 16.928 10.472c4.3033 4.9422 4.7664 7.1036 3.8756 18.09-1.2784 15.768-12.593 49.687-27.018 80.992-11.417 24.777-25.641 65.858-31.412 90.719-8.4101 36.23-11.514 67.13-12.623 125.65-1.4736 77.8 1.6523 102.5 20.03 158.26 11.072 33.596 14.368 48.823 14.404 66.544 0.02881 14.203 0.24631 14.9 4.0172 12.882 6.1096-3.2697 14.81-2.5886 35.664 2.7922 20.125 5.1925 54.572 8.7041 58.528 5.9665 2.845-1.9688 11.912-30.191 14.905-46.395 1.1989-6.4901 3.6068-14.56 5.3509-17.933s3.2005-8.729 3.2363-11.903l0.06514-5.7705 4.8475 5.5038c4.4997 5.109 9.4502 24.136 9.4502 36.323 0 2.4136 2.0786 6.325 4.6192 8.6918 3.5122 3.2721 4.6236 6.6255 4.6376 13.993 0.01728 9.11 0.32658 9.6553 5.1712 9.1171 2.8341-0.31484 34.163-1.4415 69.62-2.5037 65.018-1.9477 66.878-1.8223 78.781 5.3104 5.7067 3.4198 17.95 2.7419 27.969-1.5485 3.4901-1.4947 15.012-2.6205 27.291-2.6668l21.251-0.08012 8.6359-9.3691c4.7497-5.153 9.7057-11.182 11.013-13.397 2.2439-3.802 2.7167-3.842 8.4181-0.71319 5.9512 3.2659 6.0732 3.2291 8.2294-2.4834 3.7188-9.8522 9.811-9.5304 36.934 1.9511 23.099 9.7782 45.692 17.14 70.429 22.948 6.0303 1.4159 12.739 4.4795 14.908 6.8078 3.8265 4.1073 4.0679 4.1213 8.1013 0.47117 4.9752-4.5025 5.2242-9.8867 1.0096-21.832-2.3731-6.7261-2.6267-10.416-1.0306-14.995 1.1644-3.3402 2.1171-8.4039 2.1171-11.253 0-6.1289 8.8907-22.077 13.237-23.745 3.1738-1.2179 4.0155 0.51299 6.3464 13.051 0.73767 3.9677 4.0313 13.821 7.3193 21.897s6.5759 19.769 7.3065 25.985l1.3283 11.302 22.939 1.2021c17.395 0.91158 29.413 3.0123 49.733 8.6932 43.489 12.159 55.395 15.193 60.086 15.313 4.3378 0.11097 4.3703-0.10299 1.47-9.6769zm-349.35-575.06c-2.5638-3.2691-2.4909-3.342 0.77821-0.77819 3.4333 2.6926 4.5252 4.3852 2.8288 4.3852-0.42799 0-2.0511-1.6231-3.607-3.607zm410.04 576.73c0.51528-1.5458-0.25764-2.3188-1.8035-1.8035-1.4879 0.49597-3.111 2.1191-3.607 3.607-0.51528 1.5458 0.25764 2.3188 1.8035 1.8035 1.4879-0.49597 3.111-2.1191 3.607-3.607zm-289.2-15.281c18.971-2.1906 21.495-2.8733 15.458-4.182-12.228-2.6513-45.688-13.997-59.45-20.158-7.1908-3.2194-13.419-5.8534-13.84-5.8534s-1.7587 1.855-2.9721 4.1223c-1.5829 2.9577-1.5512 5.346 0.1122 8.4542 1.9589 3.6603 1.4414 5.2473-3.3376 10.236l-5.6561 5.9036 4.956 1.8353c2.7258 1.0094 6.3473 2.4215 8.0477 3.138 3.5866 1.5113 24.473 0.22307 56.681-3.4959zm-544.59-15.757c5.4211-0.00424 13.073 1.3362 17.004 2.9788 7.9101 3.3051 7.8164 3.4531 5.1521-8.1393-1.0422-4.5345-4.4522-26.795-7.5778-49.467-5.2262-37.909-5.6477-45.861-5.245-98.934 0.53569-70.596 3.5829-135.32 7.6659-162.83 5.8292-39.273 16.423-75.052 40.276-136.03 11.063-28.284 13.032-35.335 13.826-49.535 0.76055-13.594 0.32212-17.058-2.4502-19.359-4.7197-3.917-5.6836-2.0179-2.8227 5.5614 2.0625 5.4641 1.8099 8.0028-1.6192 16.277-5.1666 12.466-17.241 21.87-35.209 27.419-17.137 5.2932-30.564 5.3353-40.778 0.12787l-7.9446-4.0504 1.4272 30.33c0.78497 16.681 2.7427 46.801 4.3504 66.933 7.4343 93.088 5.7496 196.68-5.2202 320.97-2.2495 25.488-4.09 50.749-4.09 56.136v9.7939l6.6987-4.0842c4.2046-2.5636 10.368-4.0871 16.555-4.092zm821.68 2.0534c5.0946 0 13.256 1.5252 18.138 3.3893s9.1699 3.0235 9.5308 2.5764-0.15384-9.6242-1.1438-20.394-2.0016-63.174-2.248-116.45l-0.44795-96.873 5.6181-25.973c7.2382-33.464 15.047-55.593 32.652-92.542 12.763-26.785 19.98-48.679 16.985-51.527-0.59716-0.5677-2.6075 1.2647-4.4674 4.0719-7.2584 10.955-16.07 19.408-23.975 22.999-9.0561 4.1141-29.798 5.1488-36.058 1.7987-8.1119-4.3414-11.3-27.347-5.3775-38.8 6.4155-12.406 20.074-16.817 21.481-6.9362 0.83267 5.8483 5.2644 4.8123 6.1827-1.4453 1.4161-9.6501-9.6698-14.506-24.19-10.596-16.898 4.5503-18.038 13.962-13.487 111.35 2.5983 55.598 3.141 90.562 2.0797 133.97-0.78984 32.308-1.2493 60.597-1.0211 62.864s0.39906 12.934 0.37958 23.703c-0.02948 16.308-1.6247 25.965-9.5448 57.78-5.2302 21.01-9.5094 39.381-9.5094 40.824 0 1.9501 1.1772 1.8 4.5809-0.58404 2.5195-1.7647 8.7492-3.2086 13.844-3.2086zm41.054-373.23c3.9573-3.6868 4.5192-6.055 3.9956-16.841-0.33511-6.9028-1.6077-12.88-2.828-13.282s-4.6985 1.5667-7.7292 4.3755c-4.5131 4.1826-5.5105 6.9154-5.5105 15.099 0 8.871 2.5211 14.939 6.207 14.939 0.69315 0 3.3324-1.9306 5.8652-4.2901zm-50.803-105.46c-0.84098-15.16 4.3477-22.886 20.168-30.029 6.7341-3.0405 12.275-6.2122 12.312-7.0482 0.08909-1.987-9.083-7.7054-48.611-30.307-49.071-28.058-69.432-37.954-74.671-36.291-8.7144 2.7659-4.8457 9.2884 21.858 36.852 29.153 30.091 44.655 48.071 51.962 60.268 6.0713 10.134 12.472 17.373 15.365 17.376 1.3771 0.00175 1.9896-4.0982 1.6167-10.821zm29.454-1.5456c0.73379-1.1873-0.74088-1.8413-3.4853-1.5458-4.0636 0.43751-4.7566-0.42647-4.7529-5.9257 0.00289-4.3105-0.84848-6.1107-2.5764-5.4476-3.5889 1.3772-3.2257 7.8544 0.65818 11.738 3.6842 3.6842 8.2792 4.2185 10.157 1.1809zm-806.68-9.5095c5.7938-5.2433 4.7825-8.1336-5.204-14.873-11.188-7.5506-13.602-5.8463-13.602 9.6032v11.194l7.4696-1.2121c4.1083-0.66669 9.2096-2.7868 11.336-4.7114zm0.8552-21.54c0.74476-1.205-0.10905-3.8078-1.8974-5.7838-2.965-3.2763-2.9482-3.8961 0.19068-7.035 4.8645-4.8645 1.4351-7.1225-5.1891-3.4165-7.2489 4.0554-8.2031 10.874-2.1182 15.136 5.519 3.8657 7.1794 4.0682 9.014 1.0997zm356.62-51.201c-1.6904-2.7351-7.3362-3.0171-7.3362-0.36636 0 1.0409 0.59058 3.4316 1.3124 5.3126 1.1594 3.0212 1.6686 3.0639 4.3662 0.36636 1.6796-1.6796 2.4255-4.0702 1.6576-5.3126z" fill="#b7b8a7"/>
  <path d="m778.38 684.42c-45.302-11.468-49.77-12.226-69.042-11.721l-20.605 0.53987-1.4764-13.397c-1.5592-14.15-6.6326-29.946-10.357-32.248-2.1685-1.3402-1.0429 23.897 1.6899 37.887 0.63259 3.2385-0.08065 7.3052-1.653 9.425-2.2824 3.0771-3.7544 3.3526-8.4245 1.5771-19.915-7.5717-63.431-6.5678-91.092 2.1015-20.794 6.5171-37.923 4.3335-47.135-6.0091-2.7221-3.056-3.4507-5.9197-2.4851-9.7671 0.75143-2.9939 0.30886-8.6472-0.98347-12.563-3.2685-9.9036-8.3329-8.3355-11.711 3.6264-3.828 13.553-7.4827 14.739-46.925 15.225-19.263 0.23717-35.391 1.3972-38.78 2.7893-8.6093 3.5363-16.685 2.902-22.634-1.7775-11.477-9.0279-87.835-10.167-129.2-1.9267-10.749 2.1411-20.211 3.2262-21.026 2.4114-3.0186-3.0186-11.989-29.604-11.989-35.533 0-12.305-3.8891-5.6535-8.1617 13.96-2.4078 11.053-5.1522 21.487-6.0986 23.188-2.6872 4.8279-49.556 3.5852-72.307-1.9173-26.497-6.4085-32.654-5.8589-45.167 4.0323-13.821 10.925-18.853 12.636-37.278 12.679-16.98 0.03955-24.269-2.0733-34.76-10.075-10.747-8.1974-15.52-21.075-13.918-37.559 18.835-193.89 19.303-243.05 4.2037-442.12-1.8114-23.881-2.7995-47.762-2.1958-53.069 2.898-25.477 19.533-39.356 69.567-58.037 34.38-12.837 54.019-17.565 86.835-20.908 17.301-1.7621 35.381-3.7531 40.18-4.4245 8.0121-1.1211 8.8908-0.7816 10.77 4.1608 2.5409 6.6831 6.2703 7.0218 6.2703 0.5695 0-4.7213 0.3205-4.796 17.004-3.9674 21.528 1.0692 25.142 2.2222 7.6262 2.4333-15.226 0.18352-18.447 2.2192-18.447 11.659 0 8.6484-4.4076 12.474-8.7137 7.5621-1.7358-1.9798-4.7422-6.7288-6.681-10.553-3.4285-6.7633-3.7877-6.9173-13.131-5.6283-5.2831 0.72888-18.417 2.2706-29.186 3.426-25.561 2.7423-82.489 17.013-79.558 19.944 0.57467 0.57468 5.4456 1.867 10.824 2.8718 20.945 3.9129 31.634 12.621 31.634 25.77 0 14.164-12.45 50.7-30.842 90.509-9.8355 21.289-23.754 63.278-29.007 87.51-14.821 68.364-17.556 174.66-5.9586 231.58 2.3037 11.305 8.7184 34.594 14.255 51.754 11.788 36.536 15.414 55.087 13.809 70.639-1.1193 10.845-0.99413 11.217 3.3472 9.9486 12.215-3.5693 18.102-3.296 36.501 1.6948 21.499 5.8317 64.321 9.6353 66.619 5.9173 0.72035-1.1656 4.1661-13.524 7.6572-27.462s7.7295-28.015 9.4187-31.282c5.7298-11.08 10.314-3.5393 10.83 17.815 0.13412 5.5517 2.2533 15.605 4.7093 22.341l4.4654 12.247 8.4166-1.3586c4.6291-0.74726 37.578-1.8287 73.221-2.4032 63.936-1.0305 64.912-0.9837 72.883 3.4961 9.3254 5.2411 22.261 4.7409 35.045-1.3552 6.4998-3.0995 8.9861-3.2609 18.041-1.1708 12.935 2.9858 31.784 3.1452 37.075 0.31366 2.282-1.2213 5.3214-6.8501 7.2136-13.359 1.7985-6.1868 4.2054-11.827 5.3486-12.533s4.3775 0.87518 7.1874 3.5149c4.317 4.0556 5.4065 4.3287 7.0298 1.7618 1.0566-1.6707 1.9352-4.6282 1.9526-6.5722s1.9281-4.5494 4.2461-5.79c3.4753-1.8599 8.4464-0.39708 28.341 8.3398 13.269 5.8275 32.474 12.93 42.676 15.783 22.062 6.1693 28.769 9.4647 15.458 7.5945-9.9285-1.395-47.738-13.71-65.276-21.262-14.962-6.4422-18.197-5.3534-18.212 6.1303-0.0097 7.3612-0.68899 9.117-3.3579 8.6795-4.0188-0.65878-6.4917 6.937-3.8596 11.855 2.3133 4.3225 15.275 8.2792 27.05 8.2568 4.9698-0.00941 18.945-1.3256 31.056-2.9248 14.814-1.9562 31.251-2.5206 50.229-1.7249l28.21 1.1828-1.339-24.537c-0.96967-17.77-0.57427-27.38 1.4336-34.843 3.2904-12.23 8.0469-13.728 9.8178-3.0917 0.66057 3.9677 3.7687 13.596 6.907 21.396s6.1517 17.539 6.6967 21.642c2.3578 17.752 1.257 16.735 18.101 16.735 18.952 0 38.804 3.7413 76.173 14.355 30.073 8.5419 48.687 12.671 50.915 11.294 0.70587-0.43624-0.37092-5.6799-2.3929-11.653-2.095-6.1884-3.183-13.529-2.5296-17.066 1.4112-7.6383 21.016-65.307 29.234-85.996 3.3149-8.3447 7.6088-25.341 9.5421-37.77 3.9007-25.076 5.5525-29.795 5.0069-14.304-0.19869 5.6414 0.61325 14.37 1.8043 19.397 2.6533 11.199 0.21554 34.36-5.763 54.755-2.3261 7.9354-6.579 24.851-9.4509 37.591-5.6852 25.22-5.3002 35.304 1.6118 42.216 4.4051 4.4051 3.644 6.952-1.4888 4.9823-1.8005-0.69093-4.7082-4.6895-6.4615-8.8857-3.9001-9.3342-2.761-20.753 5.4351-54.483 5.5189-22.713 9.9114-49.406 7.7644-47.185-0.54791 0.56681-7.3672 18.189-15.154 39.161-12.128 32.664-14.164 40.072-14.205 51.67-0.03984 11.381 0.86073 14.913 5.65 22.157l5.6974 8.6178h18.543c22.974 0 35.447-4.8241 39.045-15.101 2.0028-5.7211 1.7524-6.9779-1.9991-10.031-2.3588-1.9198-9.4684-5.4284-15.799-7.797-10.573-3.9558-11.909-4.0453-16.405-1.0995-2.6919 1.7638-4.8944 5.0954-4.8944 7.4034s-0.9275 3.6232-2.0611 2.9225-2.0611-3.969-2.0611-7.2631c0-10.969 12.407-13.268 32.012-5.933 6.3557 2.378 11.974 3.9049 12.486 3.3932s-0.08583-14.283-1.3278-30.603-2.4202-68.164-2.6184-115.21c-0.34331-81.505-0.13703-86.703 4.3761-110.27 6.408-33.463 16.17-61.705 34.866-100.87 15.604-32.689 15.688-32.954 16.647-52.878 1.2298-25.539-0.28256-33.167-8.4118-42.425-16.988-19.349-39.296-19.708-64.647-1.042-7.753 5.7085-8.8881 7.725-11.966 21.258-4.1804 18.38-4.2116 38.044-0.22388 141.36 1.7174 44.497 2.4211 89.781 1.6175 104.09l-1.4226 25.323-1.3667-17.52c-0.75168-9.6358-1.4791-35.142-1.6166-56.681s-1.1426-58.252-2.2337-81.586-2.1964-58.579-2.4562-78.323l-0.47243-35.899 6.4956-13.87c7.5809-16.188 6.9275-17.254-9.9922-16.312-8.5173 0.47426-13.747-0.45417-19.719-3.5008-10.174-5.1902-11.622-6.9627-17.114-20.942-2.4482-6.2321-7.1923-15.969-10.542-21.637l-6.091-10.306 8.0054 8.6815c4.4929 4.8723 9.9757 14.085 12.496 20.997 5.2818 14.486 13.055 21.897 25.101 23.933 11.09 1.8736 15.01-1.5749 6.6849-5.8801-3.3161-1.7148-9.5894-8.5182-13.941-15.119s-11.696-16.638-16.322-22.306c-11.459-14.041-59.355-63.623-62.816-65.028-1.5924-0.64632-3.0853-5.0668-3.4748-10.289-0.82885-11.114 3.1269-16.406 12.254-16.395l6.3792 0.00771-6.6987 4.0843c-11.917 7.266-9.89 11.601 19.628 41.978 30.529 31.417 41.532 44.242 53.023 61.807 7.9998 12.227 19.832 21.395 28.137 21.801 2.9712 0.1452 14.559-6.569 30.258-17.532 5.8132-4.0596 12.7-14.918 12.71-20.041 0.00425-2.0517-4.7327-8.7426-10.527-14.869l-10.534-11.138 11.551 6.2564c12.169 6.5908 17.762 12.571 17.762 18.991 0 7.8737-7.1259 18.466-17.891 26.593-6.0908 4.5986-10.725 8.7106-10.298 9.1378s5.4025-0.29116 11.056-1.5962c12.377-2.8568 25.903 0.80084 39.244 10.612 13.123 9.6508 15.767 17.404 14.342 42.052-1.4389 24.883-6.8065 43.537-19.018 66.092-9.3203 17.216-24.577 61.358-31.871 92.21-6.8215 28.855-8.4087 65.182-6.1474 140.7 1.1202 37.41 3.0163 80.075 4.2135 94.812 2.8544 35.137 1.252 49.443-6.3946 57.089l-5.7751 5.7751-38.805-0.13016-38.805-0.13014-48.437-12.261zm-682.24-8.0885c6.7092-3.5906 10.724-15.486 11.87-35.166 1.0095-17.347 0.81223-18.282-11.658-55.237-6.9766-20.675-14.068-44.734-15.76-53.463-5.0469-26.05-7.716-78.454-6.2674-123.05 2.8732-88.45 9.8948-120.6 47.325-216.72 27.905-71.654 28.874-79.279 11.093-87.35-17.193-7.8041-59.946-2.7516-78.04 9.2228-8.7618 5.7983-16.272 19.809-16.272 30.356 0 6.1329 1.6932 8.8955 10.502 17.135l10.502 9.8236 12.726-1.0215c14.165-1.137 31.687-8.8595 39.686-17.491 7.3104-7.888 6.7248-18.074-1.2768-22.212-7.7692-4.0176-7.7869-5.1528-0.0803-5.1528 6.8176 0 14.508 6.805 14.508 12.838 0 6.0895-7.5192 19.164-14.305 24.874-8.3247 7.0047-27.296 13.973-41.727 15.327-10.106 0.94803-12.995 0.35097-20.998-4.3391-5.104-2.9911-9.6943-4.7376-10.201-3.8811-0.9867 1.6689 3.259 76.201 6.6637 116.98 6.5244 78.144 4.2442 181.75-6.7943 308.71-5.7118 65.694-5.1094 73.128 4.9232 60.752 3.2031-3.9512 5.6924-4.6221 16.819-4.5334 8.2255 0.06556 15.54 1.4204 19.759 3.6599 8.1314 4.3163 8.104 4.4756 3.6695-21.284-6.4287-37.343-13.798-116.46-10.544-113.19 0.47028 0.47235 1.9186 10.598 3.2184 22.501 2.519 23.067 15.516 103.89 18.438 114.65 2.9729 10.954 0.21812 11.85-14.808 4.8185-15.901-7.4407-27.144-7.7021-31.742-0.7379-2.5036 3.7924-2.403 4.9058 0.79568 8.8037 6.4133 7.8152 36.431 10.553 47.974 4.3757zm249.77-530.29c-5.3103-6.3985-6.6488-14.328-4.4579-26.41 1.8415-10.155 1.6474-13.104-1.2291-18.666-2.4247-4.6889-3.0795-9.4472-2.2565-16.397l1.1596-9.791-9.6759-2.0531c-5.3218-1.1292-16.421-2.7081-24.665-3.5088-14.533-1.4114-23.108-5.1281-11.412-4.9464 10.939 0.16996 54.371 5.5513 55.724 6.9044 0.7446 0.7446 0.24841 4.4108-1.1026 8.147-3.1498 8.7107-3.1422 18.388 0.0169 21.547 3.9937 3.9937 4.9946 2.9117 4.133-4.4684-0.75008-6.4249 3.4716-18.195 7.3961-20.621 0.91571-0.56595 9.9655 0.84882 20.111 3.1439s28.177 5.2786 40.072 6.6301c18.855 2.1424 21.72 2.9773 22.357 6.5158 1.2267 6.8079 4.0413 8.1621 8.527 4.1026 6.0124-5.4411 5.4662-11.38-1.0465-11.38-7.8076 0-8.9328-5.8927-2.2267-11.661 6.6289-5.7019 11.65-6.4914 6.7331-1.0588-5.1569 5.6983-4.3463 10.659 1.7417 10.659 7.2734 0 6.695 5.9021-1.6507 16.844-8.6096 11.288-12.16 11.382-14.336 0.38028-1.9876-10.051-4.1188-10.972-25.482-11.013-8.0703-0.01548-22.742-1.4352-32.603-3.1548s-18.794-2.5924-19.851-1.9395-1.9148 6.9294-1.9073 13.948-1.0718 20.18-2.3984 29.249c-2.9757 20.342-6.2 25.591-11.672 18.998zm448.84-19.293c-7.3051-7.4686-17.177-15.35-21.937-17.513s-10.63-6.7081-13.045-10.098c-4.8198-6.7689-15.4-13.166-18.553-11.218-1.1003 0.68004-2.09 5.1236-2.1994 9.8746s-1.2687 13.739-2.5764 19.974c-1.9526 9.3094-3.2068 11.454-7.0152 11.995-5.1377 0.72967-5.3916-0.07092-4.6967-14.807 0.46065-9.7675-4.5026-25.26-9.1591-28.589-4.6699-3.3387-38.122-1.6368-50.019 2.5448-12.334 4.335-31.882 5.4242-40.25 2.2426-6.9712-2.6504-9.898-0.05717-12.79 11.332-2.9278 11.531-6.3784 13.768-9.3168 6.0394-2.7694-7.284-2.6166-11.37 0.42519-11.37 1.3744 0 4.3888-2.3592 6.6987-5.2427 4.0249-5.0245 5.2718-5.2747 29.964-6.0118 14.17-0.42303 31.329-2.2046 38.131-3.959 13.163-3.3953 27.323-4.1586 37.9-2.0431 4.8321 0.96641 6.7527 2.6605 7.5944 6.6987 2.1651 10.388 9.1256 17.349 9.1256 9.1272 0-7.216 5.9361-12.997 13.346-12.997 9.1857 0 13.449 1.805 13.449 5.6941 0 4.965 10.086 16.978 14.255 16.978 2.0567 0 6.0782 1.8397 8.9368 4.0883 6.7899 5.3409 27.075 28.777 25.914 29.939-0.49467 0.49468-6.8763-5.2112-14.181-12.68zm84.163-11.526c-9.8883-5.8412-17.648-10.951-17.244-11.355 0.87231-0.87232 36.253 19.813 36.253 21.195 0 1.4141 0.33896 1.5896-19.009-9.8397zm-275.75-39.681c5.0829-6.1246 0.93025-9.3013-12.159-9.3013-6.7704 0-12.883-0.92751-13.584-2.0611-0.79859-1.2921 3.6509-2.0611 11.926-2.0611 10.17 0 13.982 0.86515 16.611 3.7693 4.3092 4.7616 4.376 9.8473 0.15088 11.469-5.0343 1.9318-5.709 1.5162-2.9449-1.8144zm-92.729-4.8946c1.7004-1.0695 14.686-2.459 28.856-3.0877 16.482-0.73122 22.794-0.50882 17.52 0.6173-12.937 2.7622-49.976 4.7352-46.375 2.4704z" fill="#64635d"/>
 </g>
</svg>
